<svg viewBox="0 0 112 112" fill="none" xmlns="http://www.w3.org/2000/svg">
<path d="M80.567 111.65H31.443C14.279 111.639 0.366952 97.731 0.350952 80.568V31.444C0.360952 14.277 14.275 0.36299 31.443 0.35199H80.567C97.73 0.36799 111.637 14.281 111.649 31.444V80.568C111.632 97.728 97.726 111.634 80.567 111.65ZM31.443 9.36299C19.251 9.37099 9.36995 19.253 9.36195 31.443V80.568C9.37195 92.758 19.252 102.636 31.442 102.644H80.567C92.754 102.633 102.632 92.756 102.643 80.568V31.444C102.634 19.254 92.756 9.37399 80.567 9.36299H31.443Z" fill="currentColor"/>
<path d="M56 85.29C39.831 85.29 26.724 72.184 26.724 56.015C26.724 39.846 39.831 26.739 56 26.739C72.169 26.739 85.276 39.846 85.276 56.015C85.251 72.173 72.159 85.265 56 85.29ZM56 35.731C44.803 35.731 35.725 44.808 35.725 56.005C35.725 67.202 44.803 76.28 56 76.28C67.197 76.28 76.275 67.203 76.275 56.005C76.26 44.813 67.192 35.745 56 35.731ZM86.511 30.048C85.6091 30.049 84.7272 29.7825 83.9768 29.2823C83.2263 28.782 82.6411 28.0705 82.295 27.2376C81.949 26.4048 81.8577 25.488 82.0326 24.6033C82.2076 23.7185 82.641 22.9055 83.2781 22.2671C83.9151 21.6287 84.7271 21.1935 85.6115 21.0166C86.4958 20.8397 87.4128 20.929 88.2464 21.2732C89.08 21.6174 89.7928 22.2011 90.2947 22.9504C90.7966 23.6998 91.065 24.5811 91.066 25.483V25.493C91.0647 26.7006 90.5843 27.8584 89.7304 28.7124C88.8765 29.5663 87.7187 30.0467 86.511 30.048Z" fill="currentColor"/>
</svg>
