<svg viewBox="0 0 99 94" fill="none" xmlns="http://www.w3.org/2000/svg">
<path d="M21.4181 10.2692C21.4091 15.8792 16.8531 20.4202 11.2421 20.4112C10.9971 20.4112 10.7511 20.4012 10.5061 20.3832C4.88108 20.5582 0.180081 16.1412 0.00508109 10.5162C-0.170919 4.89116 4.24708 0.190164 9.87208 0.0151636C10.1281 0.00716358 10.3841 0.00816465 10.6401 0.0201646C16.2321 -0.329835 21.0491 3.91816 21.4001 9.51016C21.4151 9.76316 21.4211 10.0162 21.4181 10.2692ZM0.52108 28.3682H20.7511V93.4482H0.52108V28.3682ZM36.9731 49.1252C36.9731 41.0052 36.7091 34.0882 36.4401 28.3632H54.0051L54.9381 37.2802H55.3361C57.564 34.0201 60.5672 31.3649 64.0758 29.5534C67.5843 27.7419 71.4881 26.8308 75.4361 26.9022C88.7461 26.9022 98.7261 35.6842 98.7261 54.8312V93.4482H78.4981V57.3792C78.4981 48.9962 75.5701 43.2702 68.2481 43.2702C65.9557 43.2828 63.7268 44.0248 61.8841 45.3886C60.0415 46.7525 58.6808 48.6674 57.9991 50.8562C57.4225 52.4779 57.1519 54.1926 57.2011 55.9132V93.4482H36.9731V49.1252Z" fill="currentColor"/>
</svg>
