<svg viewBox="0 0 171 44" fill="none" xmlns="http://www.w3.org/2000/svg">
<mask id="mask0_1_17" style="mask-type:luminance" maskUnits="userSpaceOnUse" x="0" y="0" width="171" height="44">
<path d="M170.5 0H0V43.9096H170.5V0Z" fill="white"/>
</mask>
<g mask="url(#mask0_1_17)">
<path d="M8.74598 24.2084C9.3166 25.8805 9.37885 27.5629 9.37885 29.2869V34.9469C9.37885 38.0418 11.5783 39.6619 15.1888 39.6619L15.1369 43.9096C10.6342 43.9096 4.97992 40.607 4.97992 36.7851C4.97992 33.2749 5.87215 24.0526 2.93608 24.0526H0V19.5973H2.93608C5.82028 19.5973 4.97992 10.6346 4.97992 7.17633C4.96954 2.46134 10.6238 0 15.1265 0L15.1784 4.24764C11.5679 4.24764 9.36847 5.86776 9.36847 8.96262V17.0321C9.36847 17.9771 9.16098 18.8184 8.90161 19.4934C8.38286 20.9058 6.70214 21.3316 5.08367 21.2797V22.2248C6.65027 22.2767 8.22724 22.796 8.74598 24.2188V24.2084Z" fill="#FA3232"/>
<path d="M161.152 29.2766C161.152 27.5526 161.204 25.8805 161.775 24.1981C162.294 22.7857 163.86 22.2664 165.437 22.2145V21.2694C163.819 21.3213 162.148 20.9059 161.619 19.4935C161.308 18.8185 161.152 17.9772 161.152 17.0322V8.9731C161.152 5.88863 158.901 4.2685 155.353 4.2685L155.405 0.03125C159.897 0.03125 165.541 2.49259 165.541 7.19719C165.541 10.6451 164.649 19.5974 167.575 19.5974H170.5V24.0423H167.575C164.649 24.0423 165.541 33.2438 165.541 36.7541C165.541 40.5759 159.897 43.8681 155.405 43.8681L155.353 39.6309C158.901 39.6309 161.152 38.0107 161.152 34.9263V29.2766Z" fill="#FA3232"/>
<path d="M15.1783 33.9709V12.3692H20.2723L20.3761 17.0427H20.4798C20.5109 16.9077 20.6458 16.5961 20.8741 16.1184C21.1023 15.6406 21.4654 15.1214 21.9738 14.5398C22.4822 13.9582 23.1358 13.4493 23.945 13.0131C24.7543 12.5769 25.7502 12.3589 26.933 12.3589C28.1157 12.3589 29.0494 12.5873 29.8172 13.0443C30.5849 13.5013 31.2074 14.0828 31.6846 14.7787C32.1619 15.4745 32.4939 16.2326 32.7118 17.0427H32.8155C32.8466 16.9077 33.0126 16.5857 33.2927 16.0976C33.5729 15.6095 33.9775 15.0694 34.4962 14.4983C35.0253 13.9167 35.7101 13.4182 36.5712 13.0028C37.4323 12.5873 38.4698 12.3692 39.694 12.3692C41.0635 12.3692 42.184 12.66 43.0762 13.2312C43.9684 13.8024 44.6739 14.5502 45.203 15.4433C45.7322 16.3365 46.1264 17.2919 46.3858 18.3097C46.6451 19.3275 46.8111 20.3037 46.8838 21.228C46.9564 22.1523 46.9875 22.9208 46.9875 23.5128V33.9709H41.7897V23.4609C41.7897 22.9001 41.7586 22.2562 41.7067 21.5396C41.6549 20.823 41.5096 20.1168 41.2917 19.4417C41.0635 18.7563 40.69 18.1955 40.1609 17.7593C39.6318 17.3231 38.9055 17.105 37.951 17.105C36.7994 17.105 35.9072 17.4269 35.2951 18.0812C34.683 18.7251 34.2576 19.556 34.0397 20.553C33.8115 21.55 33.6974 22.5989 33.6974 23.679V33.9813H28.4477V23.4713C28.4477 22.9104 28.4269 22.2666 28.3958 21.55C28.3647 20.8334 28.2194 20.1272 27.9808 19.4521C27.7318 18.7667 27.348 18.2058 26.8292 17.7697C26.3001 17.3335 25.5739 17.1154 24.6298 17.1154C23.5093 17.1154 22.6378 17.4373 22.0049 18.0916C21.3721 18.7355 20.9467 19.5663 20.7184 20.5633C20.4902 21.5603 20.3761 22.6093 20.3761 23.6894V33.9917H15.1783V33.9709Z" fill="#FA3232"/>
<path d="M60.1219 34.5007C57.7045 34.5007 55.6814 34.023 54.063 33.0779C52.4341 32.1328 51.2203 30.8243 50.411 29.1626C49.6018 27.5009 49.2076 25.6004 49.2076 23.461C49.2076 21.3216 49.6122 19.3691 50.411 17.7075C51.2203 16.0458 52.4341 14.7372 54.063 13.7922C55.6918 12.8471 57.7149 12.3694 60.1219 12.3694C63.6597 12.3694 66.3468 13.3871 68.1831 15.4227C70.0195 17.4582 70.9428 20.1377 70.9428 23.461C70.9428 25.5277 70.559 27.3971 69.7912 29.0795C69.0235 30.7619 67.8407 32.0809 66.243 33.0467C64.6453 34.0126 62.6118 34.4903 60.1219 34.4903V34.5007ZM60.07 29.9727C61.647 29.9727 62.8401 29.6403 63.6701 28.9757C64.4897 28.311 65.0395 27.4594 65.3197 26.4312C65.5998 25.4031 65.7347 24.3437 65.7347 23.2533C65.7347 22.1628 65.5894 21.1139 65.3197 20.0961C65.0395 19.0783 64.4897 18.2267 63.6701 17.5517C62.8505 16.8662 61.647 16.5235 60.07 16.5235C58.493 16.5235 57.3518 16.8662 56.5218 17.5517C55.7022 18.2371 55.142 19.0887 54.8411 20.0961C54.5402 21.1139 54.395 22.1628 54.395 23.2533C54.395 24.3437 54.5402 25.4031 54.8411 26.4312C55.142 27.4698 55.7022 28.311 56.5218 28.9757C57.3414 29.6403 58.5242 29.9727 60.07 29.9727Z" fill="#FA3232"/>
<path d="M74.2419 33.9711V4.38306H79.4916V33.9711H74.2419Z" fill="#FA3232"/>
<path d="M92.1383 34.5005C91.4017 34.5005 90.6028 34.407 89.721 34.2097C88.8495 34.0123 87.9676 33.7216 87.0961 33.3165C86.2246 32.9115 85.4258 32.3922 84.7099 31.7691C83.9941 31.1356 83.4234 30.3982 83.0084 29.557C82.5935 28.7158 82.3756 27.7395 82.3756 26.6179H87.314C87.314 26.6179 87.3347 26.8776 87.397 27.3034C87.4489 27.7292 87.6149 28.1861 87.895 28.695C88.1751 29.2039 88.6316 29.6505 89.2645 30.0347C89.8973 30.419 90.7999 30.6163 91.993 30.6163C92.9372 30.6163 93.7049 30.4917 94.3066 30.2528C94.898 30.0036 95.3441 29.7024 95.645 29.3285C95.9459 28.965 96.0911 28.5496 96.0911 28.0926C96.0911 27.3241 95.7695 26.7218 95.1159 26.2752C94.4726 25.839 93.6323 25.4755 92.6259 25.1951C91.6092 24.9147 90.5302 24.6239 89.3993 24.3331C88.2581 24.0319 87.1999 23.6373 86.1935 23.1492C85.1872 22.6611 84.3779 21.986 83.7554 21.124C83.1226 20.262 82.8113 19.1508 82.8113 17.7903C82.8113 15.7548 83.6206 14.2385 85.2287 13.2207C86.8368 12.2029 88.8806 11.6941 91.3706 11.6941C92.6985 11.6941 93.9539 11.8395 95.1263 12.1406C96.2986 12.4418 97.3361 12.9092 98.2491 13.5634C99.1621 14.2073 99.8883 15.0382 100.428 16.0352C100.967 17.0322 101.237 18.2473 101.237 19.6908H96.2986C96.3297 18.8808 96.2052 18.2265 95.9044 17.7176C95.6035 17.2087 95.2093 16.8141 94.7216 16.5337C94.234 16.2533 93.7049 16.0559 93.1447 15.9521C92.5844 15.8482 92.0449 15.7963 91.5158 15.7963C90.2605 15.7963 89.306 16.0144 88.6523 16.4506C88.0091 16.8868 87.6771 17.458 87.6771 18.1538C87.6771 18.9639 87.9987 19.587 88.6523 20.0232C89.2956 20.4594 90.136 20.8228 91.1734 21.1033C92.2005 21.3837 93.3003 21.6745 94.4519 21.9652C95.6035 22.2664 96.6928 22.6611 97.7096 23.1492C98.7263 23.6373 99.5563 24.302 100.2 25.1224C100.843 25.9429 101.175 27.0437 101.175 28.4042C101.175 29.7647 100.801 30.8967 100.044 31.7899C99.2866 32.683 98.2387 33.3581 96.89 33.815C95.5412 34.272 93.9539 34.5005 92.1383 34.5005Z" fill="#FA3232"/>
<path d="M113.822 34.5007C111.404 34.5007 109.381 34.023 107.763 33.0779C106.134 32.1328 104.92 30.8243 104.111 29.1626C103.302 27.5009 102.907 25.6004 102.907 23.461C102.907 21.3216 103.312 19.3691 104.111 17.7075C104.92 16.0458 106.134 14.7372 107.763 13.7922C109.392 12.8471 111.415 12.3694 113.822 12.3694C117.36 12.3694 120.047 13.3871 121.883 15.4227C123.719 17.4582 124.643 20.1377 124.643 23.461C124.643 25.5277 124.259 27.3971 123.491 29.0795C122.723 30.7619 121.541 32.0809 119.943 33.0467C118.345 34.0126 116.312 34.4903 113.822 34.4903V34.5007ZM113.77 29.9727C115.347 29.9727 116.54 29.6403 117.37 28.9757C118.19 28.311 118.739 27.4594 119.02 26.4312C119.3 25.4031 119.435 24.3437 119.435 23.2533C119.435 22.1628 119.289 21.1139 119.02 20.0961C118.739 19.0783 118.19 18.2267 117.37 17.5517C116.55 16.8662 115.347 16.5235 113.77 16.5235C112.193 16.5235 111.052 16.8662 110.222 17.5517C109.402 18.2371 108.842 19.0887 108.541 20.0961C108.24 21.1139 108.095 22.1628 108.095 23.2533C108.095 24.3437 108.24 25.4031 108.541 26.4312C108.842 27.4698 109.402 28.311 110.222 28.9757C111.041 29.6403 112.224 29.9727 113.77 29.9727Z" fill="#FA3232"/>
<path d="M126.324 16.1599V12.3796H139.925V16.1599H126.324ZM129.26 34.0229V8.84863C129.26 6.95849 129.685 5.58761 130.546 4.74639C131.407 3.90517 132.694 3.48975 134.406 3.48975H140.081V7.64392H134.624V34.0229H129.27H129.26Z" fill="#FA3232"/>
<path d="M142.072 16.1599V12.3796C142.84 12.3796 143.473 12.3277 143.961 12.2238C144.448 12.12 144.842 11.8915 145.143 11.5384C145.444 11.1853 145.662 10.6453 145.797 9.90792C145.932 9.17055 146.004 8.15278 146.004 6.86499H150.31V12.3796H155.248V16.1599H142.072ZM150.466 33.9709C148.754 33.9709 147.467 33.5451 146.606 32.7143C145.745 31.8731 145.32 30.5126 145.32 28.612V15.5783H150.31V29.7648H155.352V33.9709H150.466Z" fill="#FA3232"/>
</g>
</svg>
