<svg viewBox="0 0 1278 460" fill="none" xmlns="http://www.w3.org/2000/svg">
<path d="M100.11 389.224L105.21 148.824C105.63 140.324 108.08 133.744 112.54 129.054C117 124.384 123.48 122.044 131.99 122.044H207.87C216.37 122.044 222.75 124.384 227 129.054C231.24 133.734 233.59 140.324 234.01 148.824L239.75 389.224H247.4L255.69 138.624C256.11 133.524 257.81 129.484 260.79 126.504C263.76 123.534 267.59 122.044 272.27 122.044H323.28C328.8 122.044 332.94 123.744 335.71 127.144C338.47 130.554 339.64 135.014 339.22 140.534L323.92 423.654C323.49 433.434 320.83 440.984 315.95 446.294C311.06 451.614 304.15 454.264 295.23 454.264H210.42C200.64 454.264 193.41 451.614 188.74 446.294C184.06 440.984 181.51 433.225 181.09 423.025L174.08 191.554H166.43L159.42 423.025C158.56 433.225 155.8 440.984 151.13 446.294C146.45 451.614 139.43 454.264 130.09 454.264H44.63C35.7 454.264 28.79 451.614 23.91 446.294C19.02 440.984 16.15 433.444 15.3 423.654L0 140.544C0 135.024 1.28 130.564 3.83 127.154C6.38 123.754 10.42 122.054 15.95 122.054H67.6C72.7 122.054 76.63 123.544 79.4 126.514C82.16 129.494 83.55 133.524 83.55 138.634L92.48 389.234H100.13L100.11 389.224Z" fill="#AE8FFF"/>
<path d="M369.52 446.294C361.23 437.584 357.09 425.154 357.09 408.994V350.324C357.09 337.154 359.53 326.414 364.42 318.124C369.3 309.834 377.91 301.654 390.25 293.574L444.45 257.224C451.67 252.554 456.88 248.294 460.07 244.474C463.26 240.644 465.17 236.824 465.81 232.994C466.45 229.164 466.77 223.424 466.77 215.774V201.744C466.77 196.224 465.81 192.084 463.9 189.314C461.99 186.554 458.9 185.174 454.65 185.174C450.4 185.174 447.32 186.564 445.4 189.314C443.49 192.084 442.53 196.224 442.53 201.744V231.074C442.53 235.324 441.04 238.944 438.07 241.914C435.09 244.894 431.06 246.374 425.95 246.374H376.21C371.11 246.374 367.06 244.994 364.09 242.234C361.11 239.474 359.63 235.754 359.63 231.074V205.564C359.63 177.934 368.02 156.464 384.82 141.164C401.61 125.864 424.88 118.204 454.64 118.204C484.4 118.204 509.8 125.854 527.01 141.164C544.23 156.464 552.83 177.944 552.83 205.564V440.864C552.83 445.114 551.34 448.734 548.37 451.704C545.39 454.674 541.14 456.164 535.62 456.164H483.97C478.44 456.164 474.19 454.774 471.22 452.024C468.24 449.264 466.76 445.544 466.76 440.864V401.324L455.28 433.204C442.53 450.644 425.52 459.344 404.27 459.344C389.38 459.344 377.81 454.984 369.52 446.274V446.294ZM463.57 384.444C465.69 382.114 466.76 378.814 466.76 374.564V273.174C463.78 276.584 460.8 279.774 457.83 282.744C455.7 284.874 453.79 286.994 452.09 289.124C448.26 292.954 445.81 296.564 444.76 299.964C443.69 303.374 443.17 308.044 443.17 313.994V375.214C443.17 379.464 444.23 382.654 446.36 384.774C448.48 386.904 451.24 387.964 454.65 387.964C458.48 387.964 461.44 386.794 463.58 384.454L463.57 384.444Z" fill="#AE8FFF"/>
<path d="M584.09 450.124C581.11 447.364 579.63 443.644 579.63 438.964V25.1245C579.63 20.8845 580.91 17.2645 583.46 14.2845C586.01 11.3145 589.41 9.40448 593.66 8.54448L645.31 0.254481C650.83 -0.595519 655.61 0.684481 659.66 4.08448C663.7 7.49448 665.72 11.7345 665.72 16.8345V438.964C665.72 443.214 664.23 446.835 661.26 449.805C658.28 452.785 654.25 454.264 649.14 454.264H596.85C591.32 454.264 587.07 452.884 584.1 450.124H584.09Z" fill="#AE8FFF"/>
<path d="M734.25 438.004C723.83 427.164 718.63 410.904 718.63 389.224V196.014H701.41C697.16 195.594 693.86 194.104 691.53 191.554C689.19 189.004 688.02 185.604 688.02 181.354V136.715C688.02 132.475 689.19 129.065 691.53 126.515C693.86 123.965 697.16 122.484 701.41 122.054H718.63V55.7345C718.63 51.4945 719.91 47.8745 722.46 44.8945C725.01 41.9245 728.41 40.0145 732.66 39.1545L784.31 31.5045C789.83 30.2245 794.61 31.2945 798.66 34.6945C802.7 38.1045 804.72 42.5645 804.72 48.0845V122.054H831.5C835.74 122.054 839.25 123.334 842.02 125.884C844.78 128.434 846.16 132.054 846.16 136.724V181.364C846.16 185.614 844.77 189.124 842.02 191.884C839.25 194.654 835.74 196.024 831.5 196.024H804.72V365.004C804.72 368.414 805.68 371.174 807.59 373.294C809.5 375.424 812.15 376.484 815.56 376.484H834.05C838.29 376.484 841.38 377.874 843.3 380.624C845.21 383.394 846.17 387.324 846.17 392.424V438.974C846.17 443.224 844.78 446.844 842.03 449.814C839.26 452.794 835.75 454.275 831.51 454.275H784.32C761.36 454.275 744.67 448.854 734.26 438.014L734.25 438.004Z" fill="#AE8FFF"/>
<path d="M893.02 435.134C875.8 418.984 867.19 394.965 867.19 363.085V215.784C867.19 183.484 875.58 159.144 892.38 142.774C909.17 126.414 933.51 118.224 965.39 118.224C997.27 118.224 1020.01 126.414 1036.17 142.774C1052.32 159.144 1060.4 183.484 1060.4 215.784V261.694C1060.4 272.754 1058.17 281.044 1053.7 286.564C1049.24 292.094 1043.18 294.854 1035.53 294.854H953.27V375.835C953.27 381.365 954.23 385.504 956.14 388.264C958.05 391.034 961.13 392.404 965.39 392.404C969.65 392.404 972.72 391.024 974.64 388.264C976.55 385.504 977.51 381.355 977.51 375.835V331.194C977.51 326.524 979 322.585 981.97 319.395C984.94 316.205 988.98 314.615 994.09 314.615H1043.83C1048.93 314.615 1052.97 316.205 1055.95 319.395C1058.92 322.585 1060.41 326.514 1060.41 331.194V368.174C1060.41 397.934 1052.22 420.575 1035.86 436.085C1019.49 451.605 996.01 459.354 965.4 459.354C934.79 459.354 910.24 451.284 893.03 435.124L893.02 435.134ZM975.92 265.844C976.98 264.784 977.51 263.615 977.51 262.335V201.754C977.51 196.234 976.55 192.094 974.64 189.324C972.73 186.564 969.64 185.184 965.39 185.184C961.14 185.184 958.06 186.574 956.14 189.324C954.23 192.094 953.27 196.234 953.27 201.754V267.434H972.4C973.68 267.434 974.84 266.904 975.91 265.844H975.92Z" fill="#AE8FFF"/>
<path d="M1199.09 129.064C1205.68 121.844 1216.2 118.224 1230.65 118.224C1245.1 118.224 1257 122.904 1265.08 132.254C1273.15 141.614 1277.2 154.154 1277.2 169.874V251.494C1277.2 256.174 1275.92 259.894 1273.37 262.654C1270.82 265.424 1266.99 266.805 1261.89 266.805H1212.15C1206.62 266.805 1202.59 265.424 1200.03 262.654C1197.48 259.894 1196.2 256.174 1196.2 251.494V222.164C1196.2 217.494 1195.13 213.874 1193.01 211.324C1190.88 208.774 1187.91 207.494 1184.08 207.494C1180.67 207.494 1177.91 208.774 1175.79 211.324C1173.66 213.874 1172.6 217.494 1172.6 222.164V438.964C1172.6 443.214 1171.11 446.835 1168.14 449.805C1165.16 452.785 1161.13 454.264 1156.02 454.264H1103.73C1098.2 454.264 1093.95 452.884 1090.98 450.124C1088 447.364 1086.52 443.644 1086.52 438.964V145.004C1086.52 140.334 1087.8 136.504 1090.35 133.524C1092.9 130.554 1096.3 128.644 1100.55 127.784L1152.2 120.134C1157.72 119.284 1162.5 120.564 1166.55 123.964C1170.59 127.374 1172.61 131.834 1172.61 137.354V196.014L1182.81 161.584C1187.05 147.134 1192.47 136.294 1199.07 129.064H1199.09Z" fill="#AE8FFF"/>
</svg>
